Coordinates
version=1
nRows=18
nColumns=22
inDegrees=yes

Units are S.I. units (second, meters, Newtons, ...)
If the header above contains a line with 'inDegrees', this indicates whether rotational values are in degrees (yes) or radians (no).

endheader
time	pelvis_tilt	pelvis_list	pelvis_rotation	pelvis_tx	pelvis_ty	pelvis_tz	hip_flexion_r	hip_adduction_r	hip_rotation_r	knee_angle_r	ankle_angle_r	subtalar_angle_r	hip_flexion_l	hip_adduction_l	hip_rotation_l	knee_angle_l	ankle_angle_l	subtalar_angle_l	lumbar_extension	lumbar_bending	lumbar_rotation
      4.37000000	      3.32117613	     -4.63375494	     12.62843595	     -0.03624505	      1.00335864	     -0.53958110	     -1.15613445	     16.56971290	    -11.02465761	     -8.82403389	      9.69657030	    -11.63181527	     20.03410839	    -14.01708707	      1.46252361	    -42.82623260	      9.61126566	      1.59442925	    -16.98800160	      7.55310009	      9.19488819
      4.38000000	      3.13775097	     -4.65771755	     11.78095864	     -0.03114441	      1.00305336	     -0.53902564	     -1.37866135	     16.55690757	    -10.19465793	     -8.92007229	      9.87636336	    -11.61896225	     20.48014631	    -13.79948925	      1.54952820	    -40.91523242	      9.62890976	      1.42027164	    -17.00218430	      7.43082458	      9.34903156
      4.39000000	      2.96648354	     -4.64522943	     10.99073354	     -0.02606879	      1.00279758	     -0.53863131	     -1.61436486	     16.49776169	     -9.42262367	     -9.01356880	     10.07154244	    -11.58922250	     20.89399640	    -13.46789717	      1.68865172	    -38.98372221	      9.51795893	      1.44429741	    -17.03046689	      7.29996037	      9.42465244
      4.40000000	      2.81163102	     -4.59704717	     10.24534377	     -0.02099598	      1.00258424	     -0.53836606	     -1.86500046	     16.39359207	     -8.69666928	     -9.11254534	     10.29280411	    -11.53718692	     21.26603437	    -13.03286385	      1.86825201	    -37.03683793	      9.27258139	      1.72399553	    -17.07693824	      7.15479820	      9.44884870
      4.41000000	      2.69310605	     -4.52712455	      9.56703274	     -0.01588071	      1.00241152	     -0.53822813	     -2.16533771	     16.26918055	     -8.02039473	     -9.18178202	     10.53007016	    -11.44754665	     21.58634679	    -12.51438292	      2.10235654	    -35.08711626	      8.92979434	      2.42491133	    -17.15191332	      7.01144612	      9.40458540
      4.42000000	      2.56387733	     -4.43460701	      8.95185601	     -0.01076988	      1.00219241	     -0.53822988	     -2.42527783	     16.10810266	     -7.43448403	     -9.28960587	     10.79331325	    -11.36213592	     21.90940456	    -11.90440367	      2.38961246	    -33.14301360	      8.42970595	      3.28503305	    -17.21011457	      6.86668666	      9.29328483
      4.43000000	      2.45148650	     -4.33310150	      8.39177781	     -0.00560862	      1.00194451	     -0.53831494	     -2.69211068	     15.93633246	     -6.91151537	     -9.40532360	     11.06772950	    -11.27500822	     22.20312301	    -11.24257576	      2.69594760	    -31.20750188	      7.82718978	      4.30092404	    -17.27511613	      6.72848141	      9.14311878
      4.44000000	      2.36010761	     -4.22712157	      7.86936538	     -0.00038261	      1.00166605	     -0.53846541	     -2.97001773	     15.75862785	     -6.42442905	     -9.53666348	     11.34890637	    -11.18666284	     22.45979103	    -10.54910821	      2.98738328	    -29.28881228	      7.16181692	      5.45968725	    -17.35233293	      6.60366251	      8.95829433
      4.45000000	      2.28357551	     -4.11932173	      7.37921388	      0.00491973	      1.00133689	     -0.53864910	     -3.25280072	     15.57895253	     -5.97419417	     -9.68426857	     11.64117895	    -11.10517573	     22.68704960	     -9.83974723	      3.22906773	    -27.39194187	      6.47637445	      6.66796526	    -17.43932543	      6.48728585	      8.76183320
      4.46000000	      2.21915067	     -4.00809309	      6.90381059	      0.01032753	      1.00095431	     -0.53884974	     -3.54399787	     15.39308797	     -5.56730680	     -9.84403767	     11.95936783	    -11.03366559	     22.87542187	     -9.12133016	      3.41343909	    -25.50933798	      5.82736326	      7.88036657	    -17.52724525	      6.37218035	      8.59676114
      4.47000000	      2.16858130	     -3.91074283	      6.44138109	      0.01581387	      1.00051289	     -0.53904522	     -3.84510293	     15.22222272	     -5.15846693	    -10.01157163	     12.25903647	    -10.96373406	     23.04281032	     -8.41937373	      3.53329364	    -23.66746583	      5.24104440	      9.09930638	    -17.62422559	      6.28018769	      8.41464843
      4.48000000	      2.12867854	     -3.81935652	      5.98136545	      0.02142238	      1.00001193	     -0.53922685	     -4.16259577	     15.05607682	     -4.77344518	    -10.17684129	     12.58089834	    -10.89694923	     23.17413717	     -7.72888687	      3.60189591	    -21.84820962	      4.76761701	     10.25814824	    -17.71939758	      6.19417777	      8.26927456
      4.49000000	      2.10014212	     -3.73974762	      5.51188985	      0.02713742	      0.99945695	     -0.53937635	     -4.48690798	     14.89712160	     -4.41513151	    -10.35923525	     12.91065033	    -10.82837976	     23.26750399	     -7.06210376	      3.64001185	    -20.05358535	      4.40730894	     11.31993878	    -17.81630675	      6.11837919	      8.16040257
      4.50000000	      2.08768996	     -3.69468806	      5.04225642	      0.03294851	      0.99885323	     -0.53949888	     -4.84159759	     14.77576039	     -4.01294235	    -10.51963145	     13.21111728	    -10.74152955	     23.33119546	     -6.43899814	      3.71051561	    -18.30552869	      4.15329360	     12.34189448	    -17.91980662	      6.08529085	      8.03831712
      4.51000000	      2.08067146	     -3.66242353	      4.54570672	      0.03888421	      0.99818905	     -0.53953931	     -5.20264081	     14.66092417	     -3.63405246	    -10.69463951	     13.52400687	    -10.65031641	     23.35029405	     -5.85305377	      3.81302439	    -16.58045163	      3.99330912	     13.18270941	    -18.01414806	      6.05253264	      7.97300904
      4.52000000	      2.08691382	     -3.66732112	      4.02998884	      0.04492929	      0.99747852	     -0.53950147	     -5.58591489	     14.58348564	     -3.21471888	    -10.86576615	     13.81631553	    -10.54082193	     23.32960906	     -5.32851969	      4.01343336	    -14.90820033	      3.91060636	     13.90424137	    -18.11043404	      6.05448522	      7.92199686
      4.53000000	      2.09757692	     -3.70228850	      3.48265605	      0.05107318	      0.99670829	     -0.53934053	     -5.97112778	     14.53431887	     -2.76203041	    -11.05975972	     14.09486165	    -10.42235516	     23.27702132	     -4.86894057	      4.31629095	    -13.30514577	      3.87959957	     14.44479164	    -18.20474464	      6.07186176	      7.89579687
      4.54000000	      2.11889403	     -3.78032901	      2.91131497	      0.05737074	      0.99588852	     -0.53907796	     -6.38784986	     14.52733658	     -2.28429460	    -11.23739248	     14.36202696	    -10.28348784	     23.19161397	     -4.48838722	      4.73233124	    -11.80467018	      3.92608524	     14.84191592	    -18.29092762	      6.12542906	      7.92097932
